<svg xmlns="http://www.w3.org/2000/svg" version="1.1" xmlns:xlink="http://www.w3.org/1999/xlink" xmlns:svgjs="http://svgjs.dev/svgjs" width="1000" height="253" viewBox="0 0 1000 253"><g transform="matrix(1,0,0,1,0.1066666666666265,-0.5894685601485605)"><svg viewBox="0 0 375 95" data-background-color="#ffffff" preserveAspectRatio="xMidYMid meet" height="253" width="1000" xmlns="http://www.w3.org/2000/svg" xmlns:xlink="http://www.w3.org/1999/xlink"><g id="tight-bounds" transform="matrix(1,0,0,1,-0.03976036071776434,0.22134194946289654)"><svg viewBox="0 0 375.07952880859375 94.55713653564453" height="94.55713653564453" width="375.07952880859375"><g><svg></svg></g><g><svg viewBox="0 0 375.07952880859375 94.55713653564453" height="94.55713653564453" width="375.07952880859375"><g transform="matrix(1,0,0,1,-10.220239639282227,-79.13068389892578)"><path xmlns="http://www.w3.org/2000/svg" d="M10.22 168.069v-88.938h375.08v88.938h-111.798l0-3.011h108.786v-82.916h-369.056v82.916h108.786l0 3.011z" fill="#ae5125" fill-rule="nonzero" stroke="none" stroke-width="1" stroke-linecap="butt" stroke-linejoin="miter" stroke-miterlimit="10" stroke-dasharray="" stroke-dashoffset="0" font-family="none" font-weight="none" font-size="none" text-anchor="none" style="mix-blend-mode: normal" data-fill-palette-color="tertiary"></path><g><path xmlns="http://www.w3.org/2000/svg" d="M131.052 160.162h0.573v4.486c0.3-0.5 0.644-0.868 1.03-1.104 0.385-0.236 0.864-0.354 1.438-0.355v0c1.418 0 2.127 0.714 2.127 2.141v0 4.731h-0.573v-4.581c0-0.591-0.134-1.034-0.401-1.331-0.269-0.295-0.681-0.442-1.235-0.442v0c-0.518 0-0.95 0.12-1.296 0.36-0.345 0.242-0.709 0.617-1.09 1.126v0 4.868h-0.573zM141.169 170.197c-0.645 0-1.215-0.145-1.71-0.436-0.496-0.291-0.883-0.7-1.159-1.227-0.278-0.527-0.417-1.132-0.417-1.814v0c0-0.691 0.139-1.303 0.417-1.835 0.276-0.531 0.664-0.946 1.165-1.246 0.5-0.3 1.073-0.45 1.718-0.45v0c0.645 0 1.218 0.147 1.718 0.442 0.5 0.296 0.889 0.711 1.167 1.243 0.276 0.531 0.414 1.142 0.414 1.833v0c0 0.682-0.138 1.288-0.414 1.819-0.278 0.533-0.667 0.944-1.167 1.235-0.5 0.291-1.077 0.436-1.732 0.436zM141.183 169.679c0.536 0 1.012-0.127 1.426-0.382 0.413-0.255 0.733-0.612 0.96-1.071 0.227-0.458 0.341-0.983 0.341-1.574v0c0-0.582-0.114-1.095-0.341-1.54-0.227-0.445-0.547-0.791-0.96-1.037-0.414-0.245-0.89-0.368-1.426-0.368v0c-0.536 0-1.011 0.125-1.424 0.374-0.414 0.251-0.735 0.604-0.962 1.058-0.227 0.454-0.341 0.977-0.341 1.568v0c0 0.582 0.114 1.097 0.341 1.546 0.227 0.451 0.548 0.801 0.962 1.05 0.413 0.251 0.887 0.376 1.424 0.376zM146.187 165.248c0-0.691-0.173-1.241-0.519-1.65v0l0.341-0.341c0.209 0.173 0.365 0.368 0.469 0.587 0.105 0.218 0.181 0.486 0.227 0.804v0c0.482-0.973 1.223-1.459 2.222-1.459v0c0.491 0 0.9 0.12 1.227 0.36 0.327 0.242 0.559 0.599 0.696 1.072v0c0.245-0.473 0.564-0.83 0.954-1.072 0.391-0.24 0.823-0.36 1.295-0.36v0c0.609 0 1.1 0.188 1.473 0.565 0.373 0.378 0.554 0.904 0.545 1.576v0l-0.054 4.731h-0.546l0.028-4.581c0-0.564-0.123-1-0.368-1.309-0.245-0.309-0.627-0.464-1.146-0.464v0c-0.9 0-1.6 0.486-2.1 1.459v0 4.895h-0.572v-4.581c0-0.545-0.125-0.977-0.374-1.296-0.251-0.318-0.617-0.477-1.099-0.477v0c-0.464 0-0.893 0.141-1.287 0.423-0.396 0.282-0.676 0.623-0.84 1.022v0 4.909h-0.572zM157.367 166.87c0 0.673 0.166 1.311 0.499 1.915 0.331 0.605 0.996 0.908 1.996 0.908v0c0.373 0 0.723-0.053 1.05-0.158 0.327-0.104 0.695-0.269 1.105-0.497v0l0.259 0.423c-0.354 0.236-0.745 0.42-1.173 0.551-0.427 0.133-0.868 0.199-1.323 0.199v0c-0.945 0-1.679-0.3-2.2-0.9-0.524-0.6-0.785-1.404-0.786-2.413v0c0-0.718 0.123-1.359 0.369-1.923 0.245-0.564 0.594-1.003 1.044-1.317 0.449-0.313 0.978-0.469 1.587-0.469v0c0.527 0 0.998 0.12 1.413 0.36 0.413 0.242 0.735 0.574 0.968 0.995 0.231 0.424 0.346 0.908 0.346 1.454v0c0 0.164-0.018 0.454-0.055 0.872v0zM157.394 166.352h4.527c0.018-0.1 0.027-0.227 0.027-0.381v0c0-0.436-0.097-0.83-0.291-1.181-0.196-0.349-0.458-0.622-0.786-0.818-0.327-0.195-0.686-0.292-1.077-0.292v0c-0.636 0-1.174 0.245-1.614 0.736-0.442 0.491-0.704 1.136-0.786 1.936zM172.679 170.143c-0.2-0.164-0.343-0.335-0.428-0.513-0.087-0.176-0.181-0.428-0.281-0.755v0c-0.327 0.882-1.054 1.323-2.182 1.322v0c-0.727 0-1.291-0.182-1.69-0.545-0.4-0.364-0.6-0.873-0.6-1.527v0c0-0.7 0.241-1.227 0.722-1.582 0.482-0.354 1.191-0.532 2.127-0.532v0h1.596v-0.599c0-0.609-0.123-1.053-0.369-1.331-0.245-0.276-0.65-0.414-1.213-0.415v0c-0.382 0-0.761 0.059-1.137 0.178-0.378 0.118-0.717 0.291-1.017 0.518v0l-0.273-0.423c0.682-0.545 1.495-0.818 2.441-0.818v0c0.727 0 1.266 0.175 1.617 0.523 0.349 0.351 0.524 0.89 0.523 1.618v0 2.89c0 0.709 0.168 1.259 0.505 1.65v0zM169.802 169.679c0.645 0 1.163-0.185 1.554-0.553 0.391-0.367 0.586-0.846 0.587-1.437v0-1.159h-1.527c-0.827 0-1.424 0.127-1.792 0.381-0.369 0.255-0.554 0.654-0.554 1.2v0c0 0.509 0.155 0.897 0.464 1.165 0.309 0.269 0.732 0.404 1.268 0.403zM174.397 164.334c-0.036-0.136-0.114-0.275-0.232-0.417-0.118-0.14-0.25-0.26-0.395-0.36v0l0.286-0.45c0.227 0.136 0.409 0.297 0.545 0.483 0.136 0.187 0.245 0.408 0.328 0.663v0l1.663 5.004 1.95-5.959h0.641l1.936 5.959 1.95-5.959h0.572l-2.195 6.749h-0.641l-1.95-5.958-1.949 5.958h-0.655zM189.586 170.143c-0.2-0.164-0.343-0.335-0.428-0.513-0.087-0.176-0.181-0.428-0.281-0.755v0c-0.327 0.882-1.054 1.323-2.182 1.322v0c-0.727 0-1.291-0.182-1.69-0.545-0.4-0.364-0.6-0.873-0.6-1.527v0c0-0.7 0.241-1.227 0.722-1.582 0.482-0.354 1.191-0.532 2.127-0.532v0h1.596v-0.599c0-0.609-0.123-1.053-0.368-1.331-0.245-0.276-0.65-0.414-1.214-0.415v0c-0.382 0-0.761 0.059-1.137 0.178-0.378 0.118-0.717 0.291-1.017 0.518v0l-0.273-0.423c0.682-0.545 1.495-0.818 2.441-0.818v0c0.727 0 1.266 0.175 1.617 0.523 0.349 0.351 0.524 0.89 0.523 1.618v0 2.89c0 0.709 0.168 1.259 0.505 1.65v0zM186.709 169.679c0.645 0 1.163-0.185 1.554-0.553 0.391-0.367 0.586-0.846 0.587-1.437v0-1.159h-1.527c-0.827 0-1.424 0.127-1.792 0.381-0.369 0.255-0.554 0.654-0.554 1.2v0c0 0.509 0.155 0.897 0.464 1.165 0.309 0.269 0.732 0.404 1.268 0.403zM191.358 173.197c0.5-0.018 0.877-0.118 1.132-0.3v0c0.127-0.1 0.25-0.229 0.368-0.387 0.118-0.16 0.205-0.322 0.259-0.486v0l0.532-1.69-2.945-7.077h0.6l2.604 6.327 1.923-6.327h0.6l-2.782 8.958c-0.155 0.473-0.414 0.836-0.777 1.091v0c-0.364 0.245-0.841 0.373-1.432 0.382v0zM204.666 160.08c0.2 0.082 0.373 0.195 0.518 0.341v0l-0.45 0.382c-0.1-0.109-0.234-0.195-0.401-0.259-0.169-0.064-0.349-0.095-0.54-0.096v0c-0.609 0-1.014 0.247-1.213 0.742-0.2 0.496-0.3 1.144-0.3 1.945v0 0.122h2.059v0.518h-2.059v6.286h-0.573v-6.286h-0.709v-0.518h0.709v-0.082c0-1.009 0.145-1.802 0.437-2.377 0.291-0.578 0.836-0.867 1.636-0.868v0c0.345 0 0.641 0.05 0.886 0.15zM208.62 163.189c0.127 0 0.364 0.032 0.709 0.096v0 0.518c-0.264-0.045-0.491-0.068-0.682-0.069v0c-0.518 0-0.936 0.127-1.254 0.382v0c-0.136 0.118-0.282 0.27-0.436 0.456-0.155 0.187-0.286 0.385-0.396 0.594v0 4.895h-0.572v-4.922c0-0.4-0.041-0.716-0.123-0.949-0.082-0.231-0.209-0.455-0.382-0.674v0l0.382-0.368c0.2 0.191 0.361 0.406 0.483 0.646 0.124 0.242 0.195 0.494 0.212 0.759v0c0.118-0.236 0.259-0.45 0.423-0.641 0.164-0.191 0.327-0.336 0.491-0.437v0c0.309-0.191 0.691-0.286 1.145-0.286zM213.215 170.197c-0.645 0-1.216-0.145-1.713-0.436-0.494-0.291-0.881-0.7-1.158-1.227-0.276-0.527-0.414-1.132-0.415-1.814v0c0-0.691 0.138-1.303 0.415-1.835 0.278-0.531 0.667-0.946 1.167-1.246 0.5-0.3 1.073-0.45 1.718-0.45v0c0.645 0 1.218 0.147 1.718 0.442 0.5 0.296 0.889 0.711 1.167 1.243 0.276 0.531 0.414 1.142 0.414 1.833v0c0 0.682-0.138 1.288-0.414 1.819-0.278 0.533-0.667 0.944-1.167 1.235-0.5 0.291-1.077 0.436-1.732 0.436zM213.229 169.679c0.536 0 1.011-0.127 1.423-0.382 0.414-0.255 0.735-0.612 0.963-1.071 0.227-0.458 0.341-0.983 0.341-1.574v0c0-0.582-0.114-1.095-0.341-1.54-0.227-0.445-0.548-0.791-0.963-1.037-0.413-0.245-0.887-0.368-1.423-0.368v0c-0.536 0-1.012 0.125-1.427 0.374-0.413 0.251-0.733 0.604-0.959 1.058-0.227 0.454-0.341 0.977-0.341 1.568v0c0 0.582 0.114 1.097 0.341 1.546 0.227 0.451 0.547 0.801 0.959 1.05 0.414 0.251 0.89 0.376 1.427 0.376zM218.233 165.248c0-0.691-0.173-1.241-0.519-1.65v0l0.341-0.341c0.209 0.173 0.365 0.368 0.469 0.587 0.105 0.218 0.181 0.486 0.227 0.804v0c0.482-0.973 1.223-1.459 2.222-1.459v0c0.491 0 0.9 0.12 1.227 0.36 0.327 0.242 0.559 0.599 0.696 1.072v0c0.245-0.473 0.564-0.83 0.954-1.072 0.391-0.24 0.823-0.36 1.295-0.36v0c0.609 0 1.1 0.188 1.473 0.565 0.373 0.378 0.554 0.904 0.545 1.576v0l-0.054 4.731h-0.546l0.028-4.581c0-0.564-0.123-1-0.368-1.309-0.245-0.309-0.627-0.464-1.146-0.464v0c-0.9 0-1.6 0.486-2.1 1.459v0 4.895h-0.572v-4.581c0-0.545-0.125-0.977-0.377-1.296-0.249-0.318-0.614-0.477-1.096-0.477v0c-0.464 0-0.894 0.141-1.29 0.423-0.395 0.282-0.674 0.623-0.837 1.022v0 4.909h-0.572zM232.999 160.162h0.573v4.486c0.3-0.5 0.644-0.868 1.03-1.104 0.385-0.236 0.864-0.354 1.438-0.355v0c1.418 0 2.127 0.714 2.127 2.141v0 4.731h-0.573v-4.581c0-0.591-0.134-1.034-0.401-1.331-0.269-0.295-0.681-0.442-1.235-0.442v0c-0.518 0-0.95 0.12-1.296 0.36-0.345 0.242-0.709 0.617-1.09 1.126v0 4.868h-0.573zM243.116 170.197c-0.645 0-1.215-0.145-1.71-0.436-0.496-0.291-0.883-0.7-1.159-1.227-0.278-0.527-0.417-1.132-0.417-1.814v0c0-0.691 0.139-1.303 0.417-1.835 0.276-0.531 0.664-0.946 1.165-1.246 0.5-0.3 1.073-0.45 1.718-0.45v0c0.645 0 1.218 0.147 1.718 0.442 0.5 0.296 0.889 0.711 1.167 1.243 0.276 0.531 0.414 1.142 0.414 1.833v0c0 0.682-0.138 1.288-0.414 1.819-0.278 0.533-0.667 0.944-1.167 1.235-0.5 0.291-1.077 0.436-1.732 0.436zM243.13 169.679c0.536 0 1.012-0.127 1.426-0.382 0.413-0.255 0.733-0.612 0.96-1.071 0.227-0.458 0.341-0.983 0.341-1.574v0c0-0.582-0.114-1.095-0.341-1.54-0.227-0.445-0.547-0.791-0.96-1.037-0.414-0.245-0.89-0.368-1.426-0.368v0c-0.536 0-1.011 0.125-1.424 0.374-0.414 0.251-0.735 0.604-0.962 1.058-0.227 0.454-0.341 0.977-0.341 1.568v0c0 0.582 0.114 1.097 0.341 1.546 0.227 0.451 0.548 0.801 0.962 1.05 0.413 0.251 0.887 0.376 1.424 0.376zM248.134 165.248c0-0.691-0.173-1.241-0.519-1.65v0l0.341-0.341c0.209 0.173 0.366 0.368 0.472 0.587 0.104 0.218 0.178 0.486 0.224 0.804v0c0.482-0.973 1.223-1.459 2.222-1.459v0c0.491 0 0.9 0.12 1.227 0.36 0.327 0.242 0.559 0.599 0.696 1.072v0c0.245-0.473 0.564-0.83 0.954-1.072 0.391-0.24 0.823-0.36 1.295-0.36v0c0.609 0 1.1 0.188 1.473 0.565 0.373 0.378 0.554 0.904 0.545 1.576v0l-0.054 4.731h-0.546l0.028-4.581c0-0.564-0.123-1-0.368-1.309-0.245-0.309-0.627-0.464-1.146-0.464v0c-0.9 0-1.6 0.486-2.1 1.459v0 4.895h-0.572v-4.581c0-0.545-0.125-0.977-0.374-1.296-0.251-0.318-0.617-0.477-1.099-0.477v0c-0.464 0-0.893 0.141-1.287 0.423-0.396 0.282-0.676 0.623-0.84 1.022v0 4.909h-0.572zM259.314 166.87c0 0.673 0.166 1.311 0.499 1.915 0.331 0.605 0.996 0.908 1.996 0.908v0c0.373 0 0.723-0.053 1.05-0.158 0.327-0.104 0.695-0.269 1.104-0.497v0l0.26 0.423c-0.354 0.236-0.745 0.42-1.173 0.551-0.427 0.133-0.868 0.199-1.323 0.199v0c-0.945 0-1.68-0.3-2.203-0.9-0.522-0.6-0.783-1.404-0.783-2.413v0c0-0.718 0.123-1.359 0.369-1.923 0.245-0.564 0.594-1.003 1.044-1.317 0.449-0.313 0.978-0.469 1.587-0.469v0c0.527 0 0.998 0.12 1.413 0.36 0.413 0.242 0.735 0.574 0.968 0.995 0.231 0.424 0.346 0.908 0.346 1.454v0c0 0.164-0.018 0.454-0.055 0.872v0zM259.341 166.352h4.527c0.018-0.1 0.027-0.227 0.027-0.381v0c0-0.436-0.098-0.83-0.294-1.181-0.195-0.349-0.455-0.622-0.783-0.818-0.327-0.195-0.686-0.292-1.077-0.292v0c-0.636 0-1.175 0.245-1.617 0.736-0.44 0.491-0.701 1.136-0.783 1.936z" fill="#2a160c" fill-rule="nonzero" stroke="none" stroke-width="1" stroke-linecap="butt" stroke-linejoin="miter" stroke-miterlimit="10" stroke-dasharray="" stroke-dashoffset="0" font-family="none" font-weight="none" font-size="none" text-anchor="none" style="mix-blend-mode: normal" data-fill-palette-color="secondary"></path></g></g><g transform="matrix(1,0,0,1,29.331764404296877,30.5826278990502)"><svg viewBox="0 0 316.416 33.391880737544135" height="33.391880737544135" width="316.416"><g><svg viewBox="0 0 316.416 33.391880737544135" height="33.391880737544135" width="316.416"><g><svg viewBox="0 0 316.416 33.391880737544135" height="33.391880737544135" width="316.416"><g><svg viewBox="0 0 316.416 33.391880737544135" height="33.391880737544135" width="316.416"><g><svg viewBox="0 0 316.416 33.391880737544135" height="33.391880737544135" width="316.416" id="textblock"><g><svg viewBox="0 0 316.416 33.391880737544135" height="33.391880737544135" width="316.416"><g transform="matrix(1,0,0,1,0,0)"><svg width="316.416" viewBox="5 -39.54999923706055 382.3299865722656 40.349998474121094" height="33.391880737544135" data-palette-color="#ae5125"><path d="M28.25 0L7.55 0Q6.45 0 5.73-0.75 5-1.5 5-2.6L5-2.6 5-36.45Q5-37.55 5.75-38.3 6.5-39.05 7.55-39.05L7.55-39.05Q8.65-39.05 9.4-38.3 10.15-37.55 10.15-36.45L10.15-36.45 10.15-5.2 28.25-5.2Q29.35-5.2 30.1-4.45 30.85-3.7 30.85-2.6L30.85-2.6Q30.85-1.5 30.1-0.75 29.35 0 28.25 0L28.25 0ZM53.45 0.8L53.45 0.8Q48.65 0.8 44.95-0.98 41.25-2.75 39.17-5.9 37.1-9.05 37.1-13.1L37.1-13.1 37.1-36.45Q37.1-37.6 37.85-38.33 38.6-39.05 39.7-39.05L39.7-39.05Q40.85-39.05 41.57-38.33 42.3-37.6 42.3-36.45L42.3-36.45 42.3-13.1Q42.3-10.4 43.72-8.33 45.15-6.25 47.67-5.08 50.2-3.9 53.45-3.9L53.45-3.9Q56.6-3.9 59.02-5.08 61.45-6.25 62.82-8.33 64.2-10.4 64.2-13.1L64.2-13.1 64.2-36.45Q64.2-37.6 64.95-38.33 65.7-39.05 66.8-39.05L66.8-39.05Q67.95-39.05 68.65-38.33 69.35-37.6 69.35-36.45L69.35-36.45 69.35-13.1Q69.35-9.05 67.32-5.9 65.3-2.75 61.7-0.98 58.1 0.8 53.45 0.8ZM96.84 0.5L96.84 0.5Q92.8 0.5 89.27-1.03 85.75-2.55 83.12-5.28 80.5-8 79.02-11.65 77.55-15.3 77.55-19.55L77.55-19.55Q77.55-23.75 79.02-27.38 80.5-31 83.12-33.73 85.75-36.45 89.25-38 92.75-39.55 96.84-39.55L96.84-39.55Q100.69-39.55 103.47-38.55 106.25-37.55 109.05-35.25L109.05-35.25Q109.44-34.95 109.67-34.63 109.9-34.3 109.97-33.98 110.05-33.65 110.05-33.2L110.05-33.2Q110.05-32.25 109.37-31.63 108.69-31 107.75-30.93 106.8-30.85 105.89-31.55L105.89-31.55Q104.05-33.15 102.07-34 100.09-34.85 96.84-34.85L96.84-34.85Q93.89-34.85 91.3-33.65 88.69-32.45 86.72-30.35 84.75-28.25 83.64-25.48 82.55-22.7 82.55-19.55L82.55-19.55Q82.55-16.35 83.64-13.58 84.75-10.8 86.72-8.7 88.69-6.6 91.3-5.43 93.89-4.25 96.84-4.25L96.84-4.25Q99.39-4.25 101.67-5.13 103.94-6 106.05-7.55L106.05-7.55Q106.94-8.2 107.82-8.13 108.69-8.05 109.3-7.43 109.9-6.8 109.9-5.7L109.9-5.7Q109.9-5.2 109.69-4.73 109.5-4.25 109.09-3.85L109.09-3.85Q106.4-1.7 103.32-0.6 100.25 0.5 96.84 0.5ZM120.79 0L120.79 0Q119.69 0 118.94-0.75 118.19-1.5 118.19-2.6L118.19-2.6 118.19-36.45Q118.19-37.6 118.94-38.33 119.69-39.05 120.79-39.05L120.79-39.05Q121.94-39.05 122.67-38.33 123.39-37.6 123.39-36.45L123.39-36.45 123.39-2.6Q123.39-1.5 122.67-0.75 121.94 0 120.79 0ZM145.04 0L135.99 0Q134.89 0 134.14-0.75 133.39-1.5 133.39-2.6L133.39-2.6 133.39-36.45Q133.39-37.6 134.14-38.33 134.89-39.05 135.99-39.05L135.99-39.05 145.04-39.05Q149.34-39.05 152.86-37.63 156.39-36.2 158.99-33.58 161.59-30.95 162.99-27.4 164.39-23.85 164.39-19.55L164.39-19.55Q164.39-15.25 162.99-11.68 161.59-8.1 158.99-5.48 156.39-2.85 152.86-1.43 149.34 0 145.04 0L145.04 0ZM138.59-34.45L138.59-4.6 145.04-4.6Q149.24-4.6 152.46-6.53 155.69-8.45 157.54-11.83 159.39-15.2 159.39-19.55L159.39-19.55Q159.39-23.95 157.54-27.3 155.69-30.65 152.46-32.55 149.24-34.45 145.04-34.45L145.04-34.45 138.59-34.45ZM189.78 0L189.78 0Q188.69 0 187.94-0.75 187.19-1.5 187.19-2.6L187.19-2.6 187.19-36.45Q187.19-37.6 187.94-38.33 188.69-39.05 189.78-39.05L189.78-39.05Q190.94-39.05 191.66-38.33 192.38-37.6 192.38-36.45L192.38-36.45 192.38-22.1 215.59-22.1 215.59-36.45Q215.59-37.6 216.34-38.33 217.09-39.05 218.19-39.05L218.19-39.05Q219.34-39.05 220.03-38.33 220.74-37.6 220.74-36.45L220.74-36.45 220.74-2.6Q220.74-1.5 220.03-0.75 219.34 0 218.19 0L218.19 0Q217.09 0 216.34-0.75 215.59-1.5 215.59-2.6L215.59-2.6 215.59-17.5 192.38-17.5 192.38-2.6Q192.38-1.5 191.66-0.75 190.94 0 189.78 0ZM248.78 0.5L248.78 0.5Q244.38 0.5 240.73-0.98 237.08-2.45 234.46-5.13 231.83-7.8 230.38-11.48 228.93-15.15 228.93-19.55L228.93-19.55Q228.93-23.95 230.38-27.6 231.83-31.25 234.46-33.93 237.08-36.6 240.73-38.08 244.38-39.55 248.78-39.55L248.78-39.55Q253.18-39.55 256.81-38.08 260.43-36.6 263.08-33.93 265.73-31.25 267.18-27.6 268.63-23.95 268.63-19.55L268.63-19.55Q268.63-15.15 267.18-11.48 265.73-7.8 263.08-5.13 260.43-2.45 256.81-0.98 253.18 0.5 248.78 0.5ZM248.78-4.2L248.78-4.2Q252.03-4.2 254.76-5.38 257.48-6.55 259.48-8.63 261.48-10.7 262.56-13.5 263.63-16.3 263.63-19.55L263.63-19.55Q263.63-22.8 262.56-25.6 261.48-28.4 259.48-30.48 257.48-32.55 254.76-33.7 252.03-34.85 248.78-34.85L248.78-34.85Q245.53-34.85 242.81-33.7 240.08-32.55 238.11-30.48 236.13-28.4 235.03-25.6 233.93-22.8 233.93-19.55L233.93-19.55Q233.93-16.3 235.03-13.5 236.13-10.7 238.11-8.63 240.08-6.55 242.81-5.38 245.53-4.2 248.78-4.2ZM279.38 0L279.38 0Q278.28 0 277.53-0.75 276.78-1.5 276.78-2.6L276.78-2.6 276.78-36.45Q276.78-37.6 277.53-38.33 278.28-39.05 279.38-39.05L279.38-39.05Q280.88-39.05 281.68-37.65L281.68-37.65 297.33-6.3 295.73-6.3 310.98-37.65Q311.78-39.05 313.28-39.05L313.28-39.05Q314.38-39.05 315.13-38.33 315.88-37.6 315.88-36.45L315.88-36.45 315.88-2.6Q315.88-1.5 315.11-0.75 314.33 0 313.28 0L313.28 0Q312.18 0 311.43-0.75 310.68-1.5 310.68-2.6L310.68-2.6 310.68-29.25 311.68-29.5 298.58-2.8Q297.73-1.5 296.33-1.5L296.33-1.5Q294.68-1.5 293.93-3.05L293.93-3.05 280.98-29 281.98-29.25 281.98-2.6Q281.98-1.5 281.23-0.75 280.48 0 279.38 0ZM351.08 0L328.48 0Q327.38 0 326.63-0.75 325.88-1.5 325.88-2.6L325.88-2.6 325.88-36.45Q325.88-37.6 326.63-38.33 327.38-39.05 328.48-39.05L328.48-39.05 351.08-39.05Q352.23-39.05 352.93-38.38 353.63-37.7 353.63-36.6L353.63-36.6Q353.63-35.55 352.93-34.9 352.23-34.25 351.08-34.25L351.08-34.25 331.08-34.25 331.08-22.1 345.43-22.1Q346.58-22.1 347.28-21.43 347.98-20.75 347.98-19.7L347.98-19.7Q347.98-18.65 347.28-17.98 346.58-17.3 345.43-17.3L345.43-17.3 331.08-17.3 331.08-4.8 351.08-4.8Q352.23-4.8 352.93-4.15 353.63-3.5 353.63-2.45L353.63-2.45Q353.63-1.35 352.93-0.68 352.23 0 351.08 0L351.08 0ZM373.28 0.5L373.28 0.5Q370.08 0.5 367.18-0.5 364.28-1.5 362.13-3.3 359.98-5.1 358.98-7.45L358.98-7.45Q358.48-8.5 359-9.4 359.53-10.3 360.78-10.55L360.78-10.55Q361.68-10.75 362.55-10.28 363.43-9.8 363.88-8.85L363.88-8.85Q364.48-7.6 365.85-6.55 367.23-5.5 369.18-4.85 371.13-4.2 373.28-4.2L373.28-4.2Q375.68-4.2 377.7-4.95 379.73-5.7 380.98-7.13 382.23-8.55 382.23-10.65L382.23-10.65Q382.23-13.3 380.15-15.4 378.08-17.5 373.33-18L373.33-18Q367.13-18.6 363.58-21.65 360.03-24.7 360.03-29.2L360.03-29.2Q360.03-32.5 361.88-34.8 363.73-37.1 366.9-38.3 370.08-39.5 373.98-39.5L373.98-39.5Q377.03-39.5 379.3-38.65 381.58-37.8 383.28-36.3 384.98-34.8 386.23-32.75L386.23-32.75Q386.93-31.65 386.8-30.68 386.68-29.7 385.83-29.15L385.83-29.15Q384.88-28.55 383.78-28.9 382.68-29.25 382.13-30.2L382.13-30.2Q381.33-31.65 380.18-32.65 379.03-33.65 377.48-34.23 375.93-34.8 373.83-34.8L373.83-34.8Q370.13-34.85 367.63-33.43 365.13-32 365.13-29.05L365.13-29.05Q365.13-27.55 365.9-26.18 366.68-24.8 368.75-23.8 370.83-22.8 374.73-22.4L374.73-22.4Q380.68-21.8 384-18.78 387.33-15.75 387.33-10.8L387.33-10.8Q387.33-7.95 386.15-5.85 384.98-3.75 383-2.33 381.03-0.9 378.5-0.2 375.98 0.5 373.28 0.5Z" opacity="1" transform="matrix(1,0,0,1,0,0)" fill="#ae5125" class="undefined-text-0" data-fill-palette-color="primary" id="text-0"></path></svg></g></svg></g></svg></g></svg></g><g></g></svg></g></svg></g></svg></g></svg></g><defs><mask id="c84c7472-431f-4abb-a4c3-f2f064b82037"><rect width="640" height="400" fill="white"></rect><rect width="348.05760000000004" height="68.1606875847403" fill="black" x="145.97119999999998" y="165.91965620762986" id="transform-me" transform="matrix(1,0,0,1,-122.24000000000001,-158.48609579348235)"></rect></mask><mask id="9344f56b-fc4a-4b2a-804b-6581cc93ea1a"><rect width="640" height="400" fill="white"></rect><rect width="348.05760000000004" height="68.1606875847403" fill="black" x="145.97119999999998" y="165.91965620762986" id="transform-me" transform="matrix(1,0,0,1,-122.24000000000001,-158.48609579348235)"></rect></mask></defs></svg><rect width="375.07952880859375" height="94.55713653564453" fill="none" stroke="none" visibility="hidden"></rect></g></svg></g></svg>